<svg width="26" height="26" viewBox="0 0 26 26" fill="none" xmlns="http://www.w3.org/2000/svg">
<path d="M13 0C10.4288 0 7.91543 0.762437 5.77759 2.1909C3.63975 3.61935 1.97351 5.64968 0.989572 8.02512C0.0056327 10.4006 -0.251811 13.0144 0.249797 15.5362C0.751405 18.0579 1.98953 20.3743 3.80762 22.1924C5.6257 24.0105 7.94208 25.2486 10.4638 25.7502C12.9856 26.2518 15.5995 25.9944 17.9749 25.0104C20.3503 24.0265 22.3807 22.3603 23.8091 20.2224C25.2376 18.0846 26 15.5712 26 13C25.9964 9.5533 24.6256 6.24882 22.1884 3.81163C19.7512 1.37445 16.4467 0.00363977 13 0ZM23.9563 12.0225C23.6379 12.0075 23.3192 12 23 12C21.145 12.0005 19.2982 12.246 17.5075 12.73C17.0709 11.4345 16.5078 10.1851 15.8263 9C17.6037 7.92815 19.2128 6.59917 20.6013 5.05625C22.5278 6.89433 23.7202 9.37025 23.9563 12.0225ZM19.035 3.8075C17.7859 5.17998 16.3422 6.36173 14.75 7.315C13.4165 5.43802 11.7854 3.79136 9.92126 2.44C11.4505 1.99356 13.0585 1.88463 14.6341 2.12074C16.2096 2.35686 17.715 2.93238 19.0463 3.8075H19.035ZM7.70626 3.36C9.7495 4.64675 11.5308 6.30847 12.9563 8.2575C10.4615 9.40731 7.74694 10.0018 5.00001 10C4.15221 9.99956 3.30537 9.94319 2.46501 9.83125C3.3012 7.07313 5.18202 4.75093 7.70626 3.36ZM2.00001 13C1.99995 12.5974 2.02207 12.1951 2.06626 11.795C3.03822 11.9315 4.01851 12 5.00001 12C8.13693 12.003 11.2346 11.3024 14.065 9.95C14.6886 11.0269 15.204 12.1628 15.6038 13.3412C14.5415 13.7403 13.5135 14.2252 12.53 14.7913C9.78634 16.3763 7.43383 18.5575 5.64626 21.1737C4.49833 20.144 3.58032 18.8838 2.95206 17.4755C2.3238 16.0671 1.9994 14.5421 2.00001 13ZM7.25001 22.375C8.87296 19.9746 11.0204 17.9746 13.53 16.5263C14.369 16.042 15.2446 15.6241 16.1488 15.2763C16.4582 16.6493 16.6145 18.0525 16.615 19.46C16.6157 20.8284 16.4694 22.1929 16.1788 23.53C14.6933 23.9788 13.1296 24.1078 11.5907 23.9088C10.0517 23.7097 8.57239 23.187 7.25001 22.375ZM18.3825 22.5912C18.5368 21.5567 18.6145 20.5122 18.615 19.4662C18.6148 17.8473 18.4282 16.2337 18.0588 14.6575C19.6699 14.2227 21.3312 14.0017 23 14C23.3167 14 23.6338 14.0079 23.9513 14.0238C23.7838 15.7952 23.1898 17.4997 22.22 18.9915C21.2502 20.4833 19.9335 21.718 18.3825 22.59V22.5912Z" fill="#eaeaea"/>
</svg>
